<?xml version="1.0" standalone="no"?>
<!DOCTYPE svg PUBLIC "-//W3C//DTD SVG 20010904//EN"
 "http://www.w3.org/TR/2001/REC-SVG-20010904/DTD/svg10.dtd">
<svg version="1.0" xmlns="http://www.w3.org/2000/svg"
 width="512.000000pt" height="512.000000pt" viewBox="0 0 512.000000 512.000000"
 preserveAspectRatio="xMidYMid meet">

<g transform="translate(0.000000,512.000000) scale(0.100000,-0.100000)"
fill="#000000" stroke="none">
<path d="M3831 5110 c-25 -5 -77 -25 -115 -43 -230 -110 -329 -376 -231 -621
14 -35 25 -66 25 -69 0 -4 -27 -7 -60 -7 l-61 0 -34 75 c-57 125 -160 218
-295 267 -64 23 -70 23 -495 23 -469 0 -463 1 -588 -62 -61 -30 -159 -128
-191 -190 -99 -197 -66 -420 84 -571 110 -109 214 -142 447 -142 l163 0 -31
-62 c-82 -163 -101 -260 -108 -553 l-6 -240 -855 -3 c-561 -1 -879 1 -925 8
-38 6 -94 23 -123 37 -69 35 -144 117 -174 191 -22 55 -23 67 -23 352 0 332 3
353 73 445 65 86 158 136 284 150 67 7 104 38 114 93 8 43 -16 93 -54 113 -63
34 -239 0 -348 -68 -135 -83 -208 -175 -267 -333 -19 -50 -21 -82 -25 -364 -3
-259 -1 -320 13 -382 26 -116 77 -207 165 -296 l77 -76 -73 -75 c-52 -55 -84
-99 -113 -159 -74 -149 -72 -108 -69 -1231 l3 -1002 22 -55 c43 -105 142 -201
245 -237 67 -23 258 -25 333 -4 65 19 135 64 162 105 34 53 43 103 43 251 0
168 15 237 68 315 49 71 122 126 202 151 64 19 89 20 770 17 l705 -3 61 -28
c77 -36 155 -114 190 -191 22 -49 28 -81 35 -185 11 -174 42 -252 131 -338 81
-78 180 -113 317 -113 156 1 273 49 326 135 l30 48 3 719 3 718 208 0 c227 0
320 11 463 56 342 107 632 406 731 754 43 150 49 236 44 625 -4 353 -5 362
-31 460 -31 113 -96 259 -156 346 -22 32 -40 61 -40 64 0 3 15 26 34 52 129
182 107 446 -50 608 -31 32 -169 128 -374 261 -179 116 -335 217 -348 223 -74
39 -226 59 -311 41z m194 -229 c62 -28 625 -396 668 -436 52 -49 79 -112 78
-186 0 -57 -26 -139 -49 -153 -6 -3 -48 19 -94 51 -45 31 -139 84 -208 117
-142 67 -168 72 -420 82 l-155 6 -72 65 c-58 51 -76 75 -93 121 -38 100 -14
208 62 278 39 36 76 60 103 67 48 12 142 6 180 -12z m-998 -401 c91 -46 134
-111 148 -223 5 -44 14 -66 35 -90 28 -31 30 -32 102 -27 40 2 240 4 443 4
424 1 458 -4 610 -78 264 -128 452 -374 501 -657 13 -75 15 -156 12 -453 -4
-359 -4 -362 -31 -449 -104 -337 -344 -564 -683 -644 -57 -13 -162 -17 -617
-22 l-549 -6 -29 -33 c-34 -38 -39 -88 -12 -129 31 -47 64 -53 288 -53 l205 0
0 -677 c0 -410 -4 -684 -10 -693 -7 -12 -33 -15 -128 -15 -113 0 -120 1 -154
27 -55 42 -69 84 -78 227 -5 71 -15 148 -25 176 -66 195 -228 348 -426 402
-58 16 -128 18 -794 18 -816 0 -772 4 -920 -73 -127 -66 -252 -216 -295 -357
-7 -22 -15 -120 -19 -217 -4 -125 -10 -181 -19 -190 -14 -14 -185 -25 -227
-14 -36 9 -86 56 -106 101 -18 38 -19 90 -19 990 0 563 4 974 10 1009 20 123
98 238 204 300 97 57 78 56 1088 56 1011 0 977 -2 1015 56 16 25 19 61 24 339
5 281 8 317 28 385 27 91 89 217 140 285 52 69 61 88 61 129 0 25 -9 45 -29
68 l-29 33 -304 5 c-286 5 -305 6 -343 27 -211 114 -183 414 45 484 14 4 205
8 426 8 l401 1 60 -30z"/>
<path d="M3375 3541 c-45 -11 -69 -26 -103 -65 -74 -84 -48 -221 53 -278 143
-80 316 61 265 216 -30 92 -125 148 -215 127z"/>
<path d="M4361 3535 c-53 -17 -88 -48 -112 -100 -63 -137 63 -292 208 -255 61
15 89 35 118 85 86 146 -52 320 -214 270z"/>
<path d="M3687 3099 c-51 -12 -107 -42 -135 -71 -46 -50 -55 -148 -19 -218 29
-58 103 -97 212 -112 l76 -11 -3 -91 -3 -91 -325 0 -325 0 -5 85 c-6 95 -17
123 -60 145 -49 25 -88 19 -126 -19 l-34 -34 0 -108 c0 -84 5 -118 19 -149 24
-53 100 -119 153 -134 31 -9 146 -11 398 -9 318 3 358 5 388 21 31 17 33 17
65 0 28 -16 62 -18 297 -18 254 0 267 1 306 22 91 49 134 136 134 270 0 89
-18 136 -59 157 -50 26 -88 21 -127 -18 -33 -33 -34 -36 -34 -114 0 -55 -4
-83 -14 -91 -9 -8 -75 -11 -217 -9 l-204 3 -3 89 c-3 100 0 106 60 106 81 0
174 53 207 117 19 38 14 151 -10 189 -50 81 -135 104 -383 103 -105 -1 -208
-5 -229 -10z"/>
</g>
</svg>
