<?xml version="1.0" standalone="no"?>
<!DOCTYPE svg PUBLIC "-//W3C//DTD SVG 20010904//EN"
 "http://www.w3.org/TR/2001/REC-SVG-20010904/DTD/svg10.dtd">
<svg version="1.0" xmlns="http://www.w3.org/2000/svg"
 width="136.000000pt" height="128.000000pt" viewBox="0 0 136.000000 128.000000"
 preserveAspectRatio="xMidYMid meet">

<g transform="translate(0.000000,128.000000) scale(0.100000,-0.100000)"
fill="#000000" stroke="none">
<path d="M505 1076 c-28 -7 -68 -22 -90 -34 -22 -12 -60 -26 -84 -32 -43 -11
-70 -33 -121 -101 -13 -18 -50 -52 -81 -77 -66 -51 -84 -85 -74 -139 9 -48 71
-113 111 -114 73 -3 69 2 75 -74 6 -82 25 -122 84 -179 185 -180 525 -180 710
0 59 57 78 97 84 179 6 76 2 71 75 74 40 1 102 66 111 114 10 54 -8 88 -74
139 -31 25 -68 59 -81 77 -51 67 -78 90 -121 101 -24 6 -64 21 -89 34 -25 13
-69 29 -98 35 -69 14 -273 13 -337 -3z m340 -51 c33 -9 74 -27 91 -40 20 -16
46 -25 67 -25 26 0 41 -7 58 -27 13 -16 64 -67 113 -114 79 -78 88 -90 82
-114 -4 -15 -18 -38 -32 -51 -19 -20 -32 -25 -67 -22 -46 3 -39 -6 -107 138
-17 36 -28 56 -24 45 43 -146 56 -321 28 -380 -20 -43 -98 -117 -152 -144
-131 -67 -313 -67 -444 0 -54 27 -132 101 -152 144 -28 59 -15 234 28 380 4
11 -7 -9 -24 -45 -68 -144 -61 -135 -107 -138 -35 -3 -48 2 -67 22 -14 13 -28
36 -32 51 -6 24 3 36 82 114 49 47 100 98 113 114 17 20 32 27 58 27 21 0 47
9 67 25 18 13 57 31 87 39 74 20 258 20 334 1z"/>
<path d="M436 704 c-9 -8 -16 -24 -16 -35 0 -23 34 -59 55 -59 21 0 55 36 55
59 0 27 -26 51 -55 51 -13 0 -31 -7 -39 -16z"/>
<path d="M846 704 c-9 -8 -16 -24 -16 -35 0 -23 34 -59 55 -59 21 0 55 36 55
59 0 27 -26 51 -55 51 -13 0 -31 -7 -39 -16z"/>
<path d="M622 574 c-26 -18 -30 -65 -6 -88 10 -10 33 -16 64 -16 56 0 80 18
80 60 0 36 -32 60 -80 60 -20 0 -46 -7 -58 -16z"/>
<path d="M645 384 c-14 -11 -35 -14 -74 -11 -48 3 -52 2 -35 -10 30 -22 65
-27 98 -13 17 7 38 12 46 12 8 0 29 -5 46 -12 33 -14 68 -9 98 13 18 13 14 14
-32 9 -38 -3 -58 0 -76 12 -31 20 -45 20 -71 0z"/>
</g>
</svg>
